<?xml version="1.0" encoding="UTF-8"?>
<svg xmlns="http://www.w3.org/2000/svg" xmlns:xlink="http://www.w3.org/1999/xlink" width="375pt" height="374.999991pt" viewBox="0 0 375 374.999991" version="1.2">
<defs>
<clipPath id="clip1">
  <path d="M 65 46.804688 L 172 46.804688 L 172 120 L 65 120 Z M 65 46.804688 "/>
</clipPath>
<clipPath id="clip2">
  <path d="M 52 83 L 228.675781 83 L 228.675781 299.300781 L 52 299.300781 Z M 52 83 "/>
</clipPath>
<clipPath id="clip3">
  <path d="M 292 147 L 348.496094 147 L 348.496094 191 L 292 191 Z M 292 147 "/>
</clipPath>
<clipPath id="clip4">
  <path d="M 291 145 L 348.496094 145 L 348.496094 191 L 291 191 Z M 291 145 "/>
</clipPath>
<clipPath id="clip5">
  <path d="M 294 150 L 348.496094 150 L 348.496094 191 L 294 191 Z M 294 150 "/>
</clipPath>
<clipPath id="clip6">
  <path d="M 174 230 L 309 230 L 309 331.730469 L 174 331.730469 Z M 174 230 "/>
</clipPath>
</defs>
<g id="surface1">
<path style=" stroke:none;fill-rule:nonzero;fill:rgb(29.798889%,73.329163%,74.508667%);fill-opacity:1;" d="M 187.5 0 C 184.429688 0 181.363281 0.0742188 178.300781 0.226562 C 175.234375 0.375 172.175781 0.601562 169.121094 0.902344 C 166.066406 1.203125 163.023438 1.578125 159.988281 2.03125 C 156.953125 2.480469 153.929688 3.003906 150.921875 3.601562 C 147.910156 4.203125 144.917969 4.875 141.941406 5.617188 C 138.964844 6.363281 136.007812 7.183594 133.070312 8.074219 C 130.136719 8.964844 127.222656 9.925781 124.332031 10.960938 C 121.445312 11.996094 118.582031 13.097656 115.746094 14.273438 C 112.910156 15.445312 110.105469 16.691406 107.332031 18.003906 C 104.558594 19.3125 101.820312 20.691406 99.113281 22.140625 C 96.40625 23.585938 93.738281 25.097656 91.105469 26.675781 C 88.472656 28.253906 85.882812 29.894531 83.332031 31.597656 C 80.777344 33.304688 78.269531 35.070312 75.804688 36.898438 C 73.339844 38.726562 70.921875 40.613281 68.550781 42.558594 C 66.179688 44.507812 63.855469 46.511719 61.582031 48.570312 C 59.308594 50.632812 57.085938 52.746094 54.917969 54.917969 C 52.746094 57.085938 50.632812 59.308594 48.570312 61.582031 C 46.511719 63.855469 44.507812 66.179688 42.558594 68.550781 C 40.613281 70.921875 38.726562 73.339844 36.898438 75.804688 C 35.070312 78.269531 33.304688 80.777344 31.597656 83.332031 C 29.894531 85.882812 28.253906 88.472656 26.675781 91.105469 C 25.097656 93.738281 23.585938 96.40625 22.140625 99.113281 C 20.691406 101.820312 19.3125 104.558594 18.003906 107.332031 C 16.691406 110.105469 15.445312 112.910156 14.273438 115.746094 C 13.097656 118.582031 11.996094 121.445312 10.960938 124.332031 C 9.925781 127.222656 8.964844 130.136719 8.074219 133.070312 C 7.183594 136.007812 6.363281 138.964844 5.621094 141.941406 C 4.875 144.917969 4.203125 147.910156 3.601562 150.921875 C 3.003906 153.929688 2.480469 156.953125 2.03125 159.988281 C 1.578125 163.023438 1.203125 166.066406 0.902344 169.121094 C 0.601562 172.175781 0.375 175.234375 0.226562 178.300781 C 0.0742188 181.363281 0 184.429688 0 187.5 C 0 190.570312 0.0742188 193.636719 0.226562 196.699219 C 0.375 199.765625 0.601562 202.824219 0.902344 205.878906 C 1.203125 208.933594 1.578125 211.976562 2.03125 215.011719 C 2.480469 218.046875 3.003906 221.070312 3.601562 224.078125 C 4.203125 227.089844 4.875 230.082031 5.621094 233.058594 C 6.363281 236.035156 7.183594 238.992188 8.074219 241.929688 C 8.964844 244.863281 9.925781 247.777344 10.960938 250.667969 C 11.996094 253.554688 13.097656 256.417969 14.273438 259.253906 C 15.445312 262.089844 16.691406 264.890625 18.003906 267.667969 C 19.3125 270.441406 20.691406 273.179688 22.140625 275.886719 C 23.585938 278.59375 25.097656 281.261719 26.675781 283.894531 C 28.253906 286.527344 29.894531 289.117188 31.597656 291.667969 C 33.304688 294.222656 35.070312 296.730469 36.898438 299.195312 C 38.726562 301.660156 40.613281 304.078125 42.558594 306.449219 C 44.507812 308.820312 46.511719 311.144531 48.570312 313.417969 C 50.632812 315.691406 52.746094 317.914062 54.917969 320.082031 C 57.085938 322.253906 59.308594 324.367188 61.582031 326.429688 C 63.855469 328.488281 66.179688 330.492188 68.550781 332.4375 C 70.921875 334.386719 73.339844 336.273438 75.804688 338.101562 C 78.269531 339.929688 80.777344 341.695312 83.332031 343.402344 C 85.882812 345.105469 88.472656 346.746094 91.105469 348.324219 C 93.738281 349.902344 96.40625 351.414062 99.113281 352.859375 C 101.820312 354.308594 104.558594 355.6875 107.332031 356.996094 C 110.105469 358.308594 112.910156 359.554688 115.746094 360.726562 C 118.582031 361.902344 121.445312 363.003906 124.332031 364.039062 C 127.222656 365.074219 130.136719 366.035156 133.070312 366.925781 C 136.007812 367.816406 138.964844 368.636719 141.941406 369.378906 C 144.917969 370.125 147.910156 370.796875 150.921875 371.398438 C 153.929688 371.996094 156.953125 372.519531 159.988281 372.96875 C 163.023438 373.421875 166.066406 373.796875 169.121094 374.097656 C 172.175781 374.398438 175.234375 374.625 178.300781 374.773438 C 181.363281 374.925781 184.429688 375 187.5 375 C 190.570312 375 193.636719 374.925781 196.699219 374.773438 C 199.765625 374.625 202.824219 374.398438 205.878906 374.097656 C 208.933594 373.796875 211.976562 373.421875 215.011719 372.96875 C 218.046875 372.519531 221.070312 371.996094 224.078125 371.398438 C 227.089844 370.796875 230.082031 370.125 233.058594 369.378906 C 236.035156 368.636719 238.992188 367.816406 241.929688 366.925781 C 244.863281 366.035156 247.777344 365.074219 250.667969 364.039062 C 253.554688 363.003906 256.417969 361.902344 259.253906 360.726562 C 262.089844 359.554688 264.890625 358.308594 267.667969 356.996094 C 270.441406 355.6875 273.179688 354.308594 275.886719 352.859375 C 278.59375 351.414062 281.261719 349.902344 283.894531 348.324219 C 286.527344 346.746094 289.117188 345.105469 291.667969 343.402344 C 294.222656 341.695312 296.730469 339.929688 299.195312 338.101562 C 301.660156 336.273438 304.078125 334.386719 306.449219 332.4375 C 308.820312 330.492188 311.144531 328.488281 313.417969 326.429688 C 315.691406 324.367188 317.914062 322.253906 320.082031 320.082031 C 322.253906 317.914062 324.367188 315.691406 326.429688 313.417969 C 328.488281 311.144531 330.492188 308.820312 332.4375 306.449219 C 334.386719 304.078125 336.273438 301.660156 338.101562 299.195312 C 339.929688 296.730469 341.695312 294.222656 343.402344 291.667969 C 345.105469 289.117188 346.746094 286.527344 348.324219 283.894531 C 349.902344 281.261719 351.414062 278.59375 352.859375 275.886719 C 354.308594 273.179688 355.6875 270.441406 356.996094 267.667969 C 358.308594 264.890625 359.554688 262.089844 360.726562 259.253906 C 361.902344 256.417969 363.003906 253.554688 364.039062 250.667969 C 365.074219 247.777344 366.035156 244.863281 366.925781 241.929688 C 367.816406 238.992188 368.636719 236.035156 369.378906 233.058594 C 370.125 230.082031 370.796875 227.089844 371.398438 224.078125 C 371.996094 221.070312 372.519531 218.046875 372.96875 215.011719 C 373.421875 211.976562 373.796875 208.933594 374.097656 205.878906 C 374.398438 202.824219 374.625 199.765625 374.773438 196.699219 C 374.925781 193.636719 375 190.570312 375 187.5 C 375 184.429688 374.925781 181.363281 374.773438 178.300781 C 374.625 175.234375 374.398438 172.175781 374.097656 169.121094 C 373.796875 166.066406 373.421875 163.023438 372.96875 159.988281 C 372.519531 156.953125 371.996094 153.929688 371.398438 150.921875 C 370.796875 147.910156 370.125 144.917969 369.378906 141.941406 C 368.636719 138.964844 367.816406 136.007812 366.925781 133.070312 C 366.035156 130.136719 365.074219 127.222656 364.039062 124.332031 C 363.003906 121.445312 361.902344 118.582031 360.726562 115.746094 C 359.554688 112.910156 358.308594 110.105469 356.996094 107.332031 C 355.6875 104.558594 354.308594 101.820312 352.859375 99.113281 C 351.414062 96.40625 349.902344 93.738281 348.324219 91.105469 C 346.746094 88.472656 345.105469 85.882812 343.402344 83.332031 C 341.695312 80.777344 339.929688 78.269531 338.101562 75.804688 C 336.273438 73.339844 334.386719 70.921875 332.4375 68.550781 C 330.492188 66.179688 328.488281 63.855469 326.429688 61.582031 C 324.367188 59.308594 322.253906 57.085938 320.082031 54.917969 C 317.914062 52.746094 315.691406 50.632812 313.417969 48.570312 C 311.144531 46.511719 308.820312 44.507812 306.449219 42.558594 C 304.078125 40.613281 301.660156 38.726562 299.195312 36.898438 C 296.730469 35.070312 294.222656 33.304688 291.667969 31.597656 C 289.117188 29.894531 286.527344 28.253906 283.894531 26.675781 C 281.261719 25.097656 278.59375 23.585938 275.886719 22.140625 C 273.179688 20.691406 270.441406 19.3125 267.667969 18.003906 C 264.890625 16.691406 262.089844 15.445312 259.253906 14.273438 C 256.417969 13.097656 253.554688 11.996094 250.667969 10.960938 C 247.777344 9.925781 244.863281 8.964844 241.929688 8.074219 C 238.992188 7.183594 236.035156 6.363281 233.058594 5.617188 C 230.082031 4.875 227.089844 4.203125 224.078125 3.601562 C 221.070312 3.003906 218.046875 2.480469 215.011719 2.03125 C 211.976562 1.578125 208.933594 1.203125 205.878906 0.902344 C 202.824219 0.601562 199.765625 0.375 196.699219 0.226562 C 193.636719 0.0742188 190.570312 0 187.5 0 Z M 187.5 0 "/>
<path style=" stroke:none;fill-rule:nonzero;fill:rgb(92.158508%,35.688782%,37.649536%);fill-opacity:1;" d="M 68.246094 176.734375 C 68.246094 182.742188 65.539062 184.988281 62.183594 184.988281 C 58.832031 184.988281 56.121094 182.734375 56.121094 176.734375 C 56.121094 170.738281 62.183594 163.253906 62.183594 163.253906 C 62.183594 163.253906 68.246094 170.738281 68.246094 176.734375 Z M 68.246094 176.734375 "/>
<g clip-path="url(#clip1)" clip-rule="nonzero">
<path style=" stroke:none;fill-rule:nonzero;fill:rgb(92.158508%,35.688782%,37.649536%);fill-opacity:1;" d="M 166.574219 75.261719 C 162.765625 72.5 157.335938 72.808594 151.808594 75.53125 C 152.28125 65.542969 148.703125 57.347656 142.292969 55.535156 C 135.785156 53.683594 128.296875 58.972656 123.460938 67.976562 C 122.078125 55.941406 115.71875 46.847656 108.082031 46.847656 C 100.289062 46.847656 93.832031 56.308594 92.625 68.691406 C 87.582031 61.277344 80.71875 57.269531 74.855469 59.140625 C 66.617188 61.761719 63.460938 75.003906 67.820312 88.703125 C 72.183594 102.402344 82.398438 111.390625 90.636719 108.757812 C 95.613281 107.171875 98.726562 101.710938 99.460938 94.621094 C 101.933594 97.335938 104.898438 98.929688 108.082031 98.929688 C 112.238281 98.929688 116.015625 96.226562 118.824219 91.832031 C 119.785156 98.867188 123.066406 104.214844 128.082031 105.628906 C 129.179688 105.9375 130.296875 106.042969 131.433594 105.964844 C 131.277344 110.894531 132.757812 115.050781 135.984375 117.398438 C 142.984375 122.484375 155.503906 117.167969 163.941406 105.539062 C 172.398438 93.910156 173.566406 80.351562 166.574219 75.261719 Z M 166.574219 75.261719 "/>
</g>
<g clip-path="url(#clip2)" clip-rule="nonzero">
<path style=" stroke:none;fill-rule:nonzero;fill:rgb(88.62915%,88.238525%,88.238525%);fill-opacity:1;" d="M 79.808594 183.664062 C 91.242188 199.5 95.226562 220.730469 89.589844 239.515625 C 87.769531 245.582031 85.050781 251.335938 83.011719 257.324219 C 78.425781 270.765625 77.316406 285.371094 79.789062 299.359375 C 111.386719 296.476562 142.234375 285.414062 168.796875 268.132812 C 182.753906 259.054688 195.699219 248.15625 206.558594 235.507812 C 212.71875 228.332031 218.523438 220.800781 223.101562 212.496094 C 225.082031 208.902344 226.851562 205.179688 228.234375 201.320312 C 217.734375 176.46875 180.902344 100.820312 116.648438 85.65625 C 112.476562 84.546875 108.082031 83.953125 103.5625 83.953125 C 75.417969 83.953125 52.613281 106.789062 52.613281 134.945312 C 52.613281 144.824219 55.507812 154.59375 60.917969 162.859375 C 66.160156 170.867188 74.242188 175.941406 79.808594 183.664062 Z M 79.808594 183.664062 "/>
</g>
<path style=" stroke:none;fill-rule:nonzero;fill:rgb(98.039246%,71.759033%,14.509583%);fill-opacity:1;" d="M 53.421875 125.851562 L 23.0625 151.625 L 62.195312 164.71875 C 62.183594 164.71875 51.109375 134.351562 53.421875 125.851562 Z M 53.421875 125.851562 "/>
<path style=" stroke:none;fill-rule:nonzero;fill:rgb(25.489807%,26.269531%,26.269531%);fill-opacity:1;" d="M 77.871094 126.851562 C 77.871094 127.183594 77.839844 127.511719 77.773438 127.835938 C 77.707031 128.164062 77.613281 128.480469 77.484375 128.785156 C 77.359375 129.09375 77.203125 129.382812 77.019531 129.660156 C 76.835938 129.9375 76.625 130.191406 76.390625 130.425781 C 76.15625 130.660156 75.898438 130.871094 75.625 131.054688 C 75.347656 131.238281 75.058594 131.394531 74.75 131.523438 C 74.445312 131.648438 74.128906 131.746094 73.800781 131.808594 C 73.476562 131.875 73.148438 131.90625 72.816406 131.90625 C 72.484375 131.90625 72.15625 131.875 71.832031 131.808594 C 71.503906 131.746094 71.1875 131.648438 70.882812 131.523438 C 70.574219 131.394531 70.285156 131.238281 70.007812 131.054688 C 69.734375 130.871094 69.476562 130.660156 69.242188 130.425781 C 69.007812 130.191406 68.800781 129.9375 68.613281 129.660156 C 68.429688 129.382812 68.273438 129.09375 68.148438 128.785156 C 68.019531 128.480469 67.925781 128.164062 67.859375 127.835938 C 67.796875 127.511719 67.761719 127.183594 67.761719 126.851562 C 67.761719 126.519531 67.796875 126.1875 67.859375 125.863281 C 67.925781 125.539062 68.019531 125.222656 68.148438 124.914062 C 68.273438 124.609375 68.429688 124.316406 68.613281 124.039062 C 68.800781 123.765625 69.007812 123.507812 69.242188 123.273438 C 69.476562 123.039062 69.734375 122.828125 70.007812 122.644531 C 70.285156 122.460938 70.574219 122.304688 70.882812 122.175781 C 71.1875 122.050781 71.503906 121.953125 71.832031 121.890625 C 72.15625 121.824219 72.484375 121.792969 72.816406 121.792969 C 73.148438 121.792969 73.476562 121.824219 73.800781 121.890625 C 74.128906 121.953125 74.445312 122.050781 74.75 122.175781 C 75.058594 122.304688 75.347656 122.460938 75.625 122.644531 C 75.898438 122.828125 76.15625 123.039062 76.390625 123.273438 C 76.625 123.507812 76.835938 123.765625 77.019531 124.039062 C 77.203125 124.316406 77.359375 124.609375 77.484375 124.914062 C 77.613281 125.222656 77.707031 125.539062 77.773438 125.863281 C 77.839844 126.1875 77.871094 126.519531 77.871094 126.851562 Z M 77.871094 126.851562 "/>
<path style=" stroke:none;fill-rule:nonzero;fill:rgb(25.489807%,26.269531%,26.269531%);fill-opacity:1;" d="M 194.984375 166.03125 C 194.597656 165.839844 191.300781 133.882812 199.855469 118.011719 C 199.855469 118.011719 210.929688 146.148438 221.609375 156.582031 C 221.609375 156.582031 204.5 170.851562 194.984375 166.03125 Z M 194.984375 166.03125 "/>
<path style=" stroke:none;fill-rule:nonzero;fill:rgb(100%,100%,100%);fill-opacity:1;" d="M 160.367188 183.570312 C 172.675781 191.003906 186.902344 189.996094 192.140625 181.324219 C 197.378906 172.652344 191.65625 159.597656 179.347656 152.175781 C 161.003906 141.097656 138 148.636719 138 148.636719 C 138 148.636719 140.542969 171.597656 160.367188 183.570312 Z M 160.367188 183.570312 "/>
<path style=" stroke:none;fill-rule:nonzero;fill:rgb(45.098877%,45.098877%,45.098877%);fill-opacity:1;" d="M 160.367188 183.570312 C 172.515625 190.902344 186.539062 190.015625 191.941406 181.636719 C 192.015625 181.535156 192.074219 181.425781 192.140625 181.316406 C 197.378906 172.644531 194.386719 157.6875 182.542969 149.550781 C 162.808594 136.003906 138 148.628906 138 148.628906 C 138 148.628906 138 148.65625 138.007812 148.722656 C 138.210938 150.289062 141.253906 172.03125 160.367188 183.570312 Z M 160.367188 183.570312 "/>
<path style=" stroke:none;fill-rule:nonzero;fill:rgb(99.609375%,83.139038%,50.979614%);fill-opacity:1;" d="M 160.367188 183.570312 C 172.515625 190.902344 186.539062 190.015625 191.941406 181.636719 C 192.273438 173.816406 186.691406 164.757812 177.21875 159.035156 C 158.882812 147.96875 138 148.628906 138 148.628906 C 138 148.628906 138 148.65625 138.007812 148.722656 C 138.210938 150.289062 141.253906 172.03125 160.367188 183.570312 Z M 160.367188 183.570312 "/>
<path style=" stroke:none;fill-rule:nonzero;fill:rgb(25.489807%,26.269531%,26.269531%);fill-opacity:1;" d="M 291.175781 167.800781 C 291.558594 167.609375 294.855469 135.652344 286.304688 119.78125 C 286.304688 119.78125 275.230469 147.917969 264.546875 158.347656 C 264.546875 158.339844 281.660156 172.609375 291.175781 167.800781 Z M 291.175781 167.800781 "/>
<g clip-path="url(#clip3)" clip-rule="nonzero">
<path style=" stroke:none;fill-rule:nonzero;fill:rgb(100%,100%,100%);fill-opacity:1;" d="M 325.789062 185.332031 C 313.484375 192.761719 299.253906 191.757812 294.015625 183.085938 C 288.777344 174.414062 294.503906 161.359375 306.808594 153.933594 C 325.152344 142.855469 348.15625 150.398438 348.15625 150.398438 C 348.15625 150.398438 345.617188 173.363281 325.789062 185.332031 Z M 325.789062 185.332031 "/>
</g>
<g clip-path="url(#clip4)" clip-rule="nonzero">
<path style=" stroke:none;fill-rule:nonzero;fill:rgb(45.098877%,45.098877%,45.098877%);fill-opacity:1;" d="M 325.789062 185.339844 C 313.640625 192.671875 299.617188 191.78125 294.21875 183.402344 C 294.140625 183.300781 294.082031 183.195312 294.015625 183.085938 C 288.777344 174.414062 291.769531 159.457031 303.613281 151.320312 C 323.351562 137.769531 348.15625 150.398438 348.15625 150.398438 C 348.15625 150.398438 348.15625 150.421875 348.148438 150.488281 C 347.945312 152.046875 344.902344 173.792969 325.789062 185.339844 Z M 325.789062 185.339844 "/>
</g>
<g clip-path="url(#clip5)" clip-rule="nonzero">
<path style=" stroke:none;fill-rule:nonzero;fill:rgb(99.609375%,83.139038%,50.979614%);fill-opacity:1;" d="M 325.789062 185.339844 C 313.640625 192.671875 299.617188 191.78125 294.21875 183.402344 C 293.882812 175.585938 299.464844 166.527344 308.9375 160.804688 C 327.273438 149.734375 348.15625 150.398438 348.15625 150.398438 C 348.15625 150.398438 348.15625 150.421875 348.148438 150.488281 C 347.945312 152.046875 344.902344 173.792969 325.789062 185.339844 Z M 325.789062 185.339844 "/>
</g>
<path style=" stroke:none;fill-rule:nonzero;fill:rgb(100%,95.289612%,90.979004%);fill-opacity:1;" d="M 317.105469 226.773438 C 317.105469 271.242188 283.335938 307.289062 241.679688 307.289062 C 207.070312 307.289062 177.921875 282.425781 169.027344 248.515625 C 167.21875 241.613281 166.246094 234.304688 166.246094 226.773438 C 166.246094 186.828125 193.507812 153.664062 229.253906 147.355469 C 233.296875 146.628906 237.4375 146.257812 241.679688 146.257812 C 283.335938 146.257812 317.105469 182.304688 317.105469 226.773438 Z M 317.105469 226.773438 "/>
<path style=" stroke:none;fill-rule:nonzero;fill:rgb(25.489807%,26.269531%,26.269531%);fill-opacity:1;" d="M 274.609375 211.949219 C 274.609375 212.433594 274.5625 212.910156 274.46875 213.382812 C 274.375 213.855469 274.234375 214.316406 274.050781 214.761719 C 273.863281 215.207031 273.636719 215.632812 273.371094 216.03125 C 273.101562 216.433594 272.796875 216.804688 272.457031 217.148438 C 272.113281 217.488281 271.742188 217.792969 271.339844 218.058594 C 270.941406 218.328125 270.515625 218.554688 270.070312 218.738281 C 269.625 218.925781 269.164062 219.0625 268.691406 219.15625 C 268.21875 219.25 267.738281 219.300781 267.257812 219.300781 C 266.773438 219.300781 266.296875 219.25 265.820312 219.15625 C 265.347656 219.0625 264.890625 218.925781 264.441406 218.738281 C 263.996094 218.554688 263.574219 218.328125 263.171875 218.058594 C 262.769531 217.792969 262.398438 217.488281 262.058594 217.148438 C 261.714844 216.804688 261.410156 216.433594 261.144531 216.03125 C 260.875 215.632812 260.648438 215.207031 260.464844 214.761719 C 260.277344 214.316406 260.140625 213.855469 260.046875 213.382812 C 259.949219 212.910156 259.902344 212.433594 259.902344 211.949219 C 259.902344 211.46875 259.949219 210.988281 260.046875 210.515625 C 260.140625 210.042969 260.277344 209.585938 260.464844 209.136719 C 260.648438 208.691406 260.875 208.269531 261.144531 207.867188 C 261.410156 207.464844 261.714844 207.09375 262.058594 206.753906 C 262.398438 206.414062 262.769531 206.109375 263.171875 205.839844 C 263.574219 205.574219 263.996094 205.347656 264.441406 205.160156 C 264.890625 204.976562 265.347656 204.835938 265.820312 204.742188 C 266.296875 204.648438 266.773438 204.601562 267.257812 204.601562 C 267.738281 204.601562 268.21875 204.648438 268.691406 204.742188 C 269.164062 204.835938 269.625 204.976562 270.070312 205.160156 C 270.515625 205.347656 270.941406 205.574219 271.339844 205.839844 C 271.742188 206.109375 272.113281 206.414062 272.457031 206.753906 C 272.796875 207.09375 273.101562 207.464844 273.371094 207.867188 C 273.636719 208.269531 273.863281 208.691406 274.050781 209.136719 C 274.234375 209.585938 274.375 210.042969 274.46875 210.515625 C 274.5625 210.988281 274.609375 211.46875 274.609375 211.949219 Z M 274.609375 211.949219 "/>
<path style=" stroke:none;fill-rule:nonzero;fill:rgb(45.098877%,45.098877%,45.098877%);fill-opacity:1;" d="M 248.671875 206.285156 C 254.226562 223.152344 246.257812 241.027344 230.65625 249.363281 C 225.882812 251.910156 220.660156 253.46875 215.457031 254.945312 C 206.578125 257.457031 190.851562 258.511719 187.210938 247.023438 C 185.03125 240.15625 190.882812 230.242188 185.628906 224.652344 C 183.566406 222.464844 180.3125 221.710938 178.257812 219.523438 C 175.601562 216.703125 175.652344 212.300781 176.3125 208.488281 C 179.121094 192.460938 189.230469 175.636719 207.382812 175.109375 C 224.695312 174.597656 240.804688 187.46875 247.394531 202.910156 C 247.867188 204.023438 248.292969 205.148438 248.671875 206.285156 Z M 248.671875 206.285156 "/>
<path style=" stroke:none;fill-rule:nonzero;fill:rgb(25.489807%,26.269531%,26.269531%);fill-opacity:1;" d="M 223.585938 211.949219 C 223.585938 212.433594 223.539062 212.910156 223.445312 213.382812 C 223.351562 213.855469 223.210938 214.316406 223.027344 214.761719 C 222.84375 215.207031 222.617188 215.632812 222.347656 216.03125 C 222.078125 216.433594 221.773438 216.804688 221.433594 217.148438 C 221.09375 217.488281 220.722656 217.792969 220.320312 218.058594 C 219.917969 218.328125 219.496094 218.554688 219.046875 218.738281 C 218.601562 218.925781 218.144531 219.0625 217.667969 219.15625 C 217.195312 219.25 216.71875 219.300781 216.234375 219.300781 C 215.753906 219.300781 215.273438 219.25 214.800781 219.15625 C 214.328125 219.0625 213.867188 218.925781 213.421875 218.738281 C 212.976562 218.554688 212.550781 218.328125 212.148438 218.058594 C 211.75 217.792969 211.378906 217.488281 211.035156 217.148438 C 210.695312 216.804688 210.390625 216.433594 210.121094 216.03125 C 209.851562 215.632812 209.628906 215.207031 209.441406 214.761719 C 209.257812 214.316406 209.117188 213.855469 209.023438 213.382812 C 208.929688 212.910156 208.882812 212.433594 208.882812 211.949219 C 208.882812 211.46875 208.929688 210.988281 209.023438 210.515625 C 209.117188 210.042969 209.257812 209.585938 209.441406 209.136719 C 209.628906 208.691406 209.851562 208.269531 210.121094 207.867188 C 210.390625 207.464844 210.695312 207.09375 211.035156 206.753906 C 211.378906 206.414062 211.75 206.109375 212.148438 205.839844 C 212.550781 205.574219 212.976562 205.347656 213.421875 205.160156 C 213.867188 204.976562 214.328125 204.835938 214.800781 204.742188 C 215.273438 204.648438 215.753906 204.601562 216.234375 204.601562 C 216.71875 204.601562 217.195312 204.648438 217.667969 204.742188 C 218.144531 204.835938 218.601562 204.976562 219.046875 205.160156 C 219.496094 205.347656 219.917969 205.574219 220.320312 205.839844 C 220.722656 206.109375 221.09375 206.414062 221.433594 206.753906 C 221.773438 207.09375 222.078125 207.464844 222.347656 207.867188 C 222.617188 208.269531 222.84375 208.691406 223.027344 209.136719 C 223.210938 209.585938 223.351562 210.042969 223.445312 210.515625 C 223.539062 210.988281 223.585938 211.46875 223.585938 211.949219 Z M 223.585938 211.949219 "/>
<g clip-path="url(#clip6)" clip-rule="nonzero">
<path style=" stroke:none;fill-rule:nonzero;fill:rgb(99.609375%,83.139038%,50.979614%);fill-opacity:1;" d="M 308.628906 281.078125 C 308.628906 282.738281 308.519531 284.394531 308.304688 286.046875 C 308.09375 287.699219 307.769531 289.339844 307.34375 290.96875 C 306.917969 292.597656 306.386719 294.207031 305.75 295.796875 C 305.113281 297.382812 304.378906 298.945312 303.539062 300.480469 C 302.703125 302.015625 301.769531 303.515625 300.734375 304.976562 C 299.703125 306.441406 298.578125 307.867188 297.363281 309.246094 C 296.148438 310.625 294.84375 311.960938 293.457031 313.242188 C 292.066406 314.527344 290.597656 315.753906 289.050781 316.929688 C 287.503906 318.101562 285.882812 319.21875 284.191406 320.269531 C 282.5 321.324219 280.742188 322.3125 278.921875 323.234375 C 277.101562 324.15625 275.226562 325.011719 273.296875 325.792969 C 271.367188 326.574219 269.390625 327.285156 267.367188 327.921875 C 265.34375 328.554688 263.285156 329.113281 261.191406 329.597656 C 259.09375 330.078125 256.972656 330.480469 254.828125 330.804688 C 252.679688 331.128906 250.519531 331.371094 248.339844 331.535156 C 246.160156 331.699219 243.976562 331.78125 241.789062 331.78125 C 239.597656 331.78125 237.414062 331.699219 235.234375 331.535156 C 233.058594 331.371094 230.894531 331.128906 228.746094 330.804688 C 226.601562 330.480469 224.480469 330.078125 222.382812 329.597656 C 220.289062 329.113281 218.230469 328.554688 216.207031 327.921875 C 214.1875 327.285156 212.210938 326.574219 210.277344 325.792969 C 208.347656 325.011719 206.472656 324.15625 204.652344 323.234375 C 202.832031 322.3125 201.078125 321.324219 199.382812 320.269531 C 197.691406 319.21875 196.070312 318.101562 194.523438 316.929688 C 192.976562 315.753906 191.507812 314.527344 190.117188 313.242188 C 188.730469 311.960938 187.425781 310.625 186.210938 309.246094 C 184.996094 307.867188 183.871094 306.441406 182.839844 304.976562 C 181.808594 303.515625 180.871094 302.015625 180.035156 300.480469 C 179.195312 298.945312 178.460938 297.382812 177.824219 295.796875 C 177.1875 294.207031 176.65625 292.597656 176.230469 290.96875 C 175.804688 289.339844 175.484375 287.699219 175.269531 286.046875 C 175.054688 284.394531 174.945312 282.738281 174.945312 281.078125 C 174.945312 279.417969 175.054688 277.761719 175.269531 276.109375 C 175.484375 274.457031 175.804688 272.816406 176.230469 271.1875 C 176.65625 269.558594 177.1875 267.949219 177.824219 266.359375 C 178.460938 264.769531 179.195312 263.210938 180.035156 261.675781 C 180.871094 260.140625 181.808594 258.640625 182.839844 257.175781 C 183.871094 255.710938 184.996094 254.289062 186.210938 252.910156 C 187.425781 251.527344 188.730469 250.195312 190.117188 248.914062 C 191.507812 247.628906 192.976562 246.402344 194.523438 245.226562 C 196.070312 244.050781 197.691406 242.9375 199.382812 241.886719 C 201.078125 240.832031 202.832031 239.84375 204.652344 238.921875 C 206.472656 238 208.347656 237.144531 210.277344 236.363281 C 212.210938 235.578125 214.1875 234.871094 216.207031 234.234375 C 218.230469 233.601562 220.289062 233.042969 222.382812 232.558594 C 224.480469 232.078125 226.601562 231.675781 228.746094 231.351562 C 230.894531 231.027344 233.058594 230.78125 235.234375 230.621094 C 237.414062 230.457031 239.597656 230.375 241.789062 230.375 C 243.976562 230.375 246.160156 230.457031 248.339844 230.621094 C 250.519531 230.78125 252.679688 231.027344 254.828125 231.351562 C 256.972656 231.675781 259.09375 232.078125 261.191406 232.558594 C 263.285156 233.042969 265.34375 233.601562 267.367188 234.234375 C 269.390625 234.871094 271.367188 235.578125 273.296875 236.363281 C 275.226562 237.144531 277.101562 238 278.921875 238.921875 C 280.742188 239.84375 282.5 240.832031 284.191406 241.886719 C 285.882812 242.9375 287.503906 244.050781 289.050781 245.226562 C 290.597656 246.402344 292.066406 247.628906 293.457031 248.914062 C 294.84375 250.195312 296.148438 251.527344 297.363281 252.910156 C 298.578125 254.289062 299.703125 255.710938 300.734375 257.175781 C 301.769531 258.640625 302.703125 260.140625 303.539062 261.675781 C 304.378906 263.210938 305.113281 264.769531 305.75 266.359375 C 306.386719 267.949219 306.917969 269.558594 307.34375 271.1875 C 307.769531 272.816406 308.09375 274.457031 308.304688 276.109375 C 308.519531 277.761719 308.628906 279.417969 308.628906 281.078125 Z M 308.628906 281.078125 "/>
</g>
<path style=" stroke:none;fill-rule:nonzero;fill:rgb(25.489807%,26.269531%,26.269531%);fill-opacity:1;" d="M 212.589844 265.140625 C 213.234375 268.066406 214.953125 272.378906 219.511719 275.171875 C 220.433594 275.730469 219.992188 277.15625 218.917969 277.089844 C 213.519531 276.753906 206.058594 274.644531 210.625 264.898438 C 211.046875 264 212.371094 264.167969 212.589844 265.140625 Z M 212.589844 265.140625 "/>
<path style=" stroke:none;fill-rule:nonzero;fill:rgb(25.489807%,26.269531%,26.269531%);fill-opacity:1;" d="M 271.230469 265.03125 C 270.585938 267.957031 268.867188 272.269531 264.304688 275.0625 C 263.382812 275.621094 263.828125 277.046875 264.902344 276.980469 C 270.300781 276.644531 277.761719 274.535156 273.191406 264.789062 C 272.773438 263.890625 271.449219 264.058594 271.230469 265.03125 Z M 271.230469 265.03125 "/>
</g>
</svg>
