<svg xmlns="http://www.w3.org/2000/svg" xmlns:xlink="http://www.w3.org/1999/xlink" id="Layer_1" x="0" y="0" version="1.1" viewBox="0 0 1984.25 1984.25" style="enable-background:new 0 0 1984.25 1984.25" xml:space="preserve"><style type="text/css">.st3{fill:#fbd107}.st5{fill:#4877bb}.st6,.st7{fill:#14182d}.st7{opacity:.7}.st8{fill:#ef4823}</style><g><g><path d="M801.94,1854.18c-528.28-92.37-457.59-365.7-623.86-681.16C11.81,857.56-7.81,729.15,156.86,458.87 C321.53,188.6,677.7,36.24,1009.63,262.44c331.93,226.2,574.42,156.06,775.01,332.24c200.59,176.19,227.76,422.15-10.28,641.26 S1453.34,1968.08,801.94,1854.18z" class="st6"/><path d="M801.94,1854.18c-528.28-92.37-457.59-365.7-623.86-681.16C11.81,857.56-7.81,729.15,156.86,458.87 C321.53,188.6,677.7,36.24,1009.63,262.44c331.93,226.2,574.42,156.06,775.01,332.24c200.59,176.19,227.76,422.15-10.28,641.26 S1453.34,1968.08,801.94,1854.18z" class="st7"/></g><g><path d="M346.76,1664.55c-58,0-95.81-15.13-113.45-45.38c-17.67-30.24-12-70.58,17.02-121l484.04-854.64 c15.12-27.71,17.96-49.78,8.5-66.18c-9.45-16.36-29.95-24.57-61.45-24.57h-327.1c-31.52,0-57.05-9.46-76.58-28.36 c-19.56-18.9-29.31-44.11-29.31-75.63c0-32.77,9.75-58.91,29.31-78.47C297.27,350.78,322.8,341,354.32,341h652.33 c47.89,0,79.41,12.94,94.53,38.77c15.13,25.85,10.7,59.55-13.23,101.15L454.54,1602.16c-10.11,18.9-24.91,34.03-44.44,45.37 c-19.56,11.35-40.03,17.02-61.45,17.02H346.76z" class="st3"/><path d="M697.09,1664.55c-50.42,0-83.52-13.23-99.26-39.7c-15.78-26.48-11.06-61.75,14.17-105.89 c11.35-21.42,27.1-37.82,47.28-49.16c20.14-11.35,40.94-17.02,62.4-17.02h340.34c31.5,0,56.72,9.46,75.63,28.36 c18.92,18.92,28.36,44.15,28.36,75.63c0,32.79-9.45,58.95-28.36,78.47c-18.9,19.56-44.13,29.31-75.63,29.31H697.09z" class="st5"/><path d="M1021.76,876.24c36.85-10.18,74.35-4.48,112.47,17.09l219.63,124.3c38.1,21.56,74.8,31.01,110.12,28.28 c35.31-2.74,66.37-13.21,93.24-31.39c26.83-18.21,48.72-42.23,65.61-72.08s25.96-61.11,27.26-93.78 c1.26-32.68-5.78-64.69-21.11-96.07c-15.34-31.4-42.07-57.88-80.16-79.45l-263.26-148.99c-25.08-14.19-41.17-33.13-48.27-56.83 c-7.13-23.71-3.35-48.48,11.28-74.33c14.63-25.86,34.06-42.08,58.34-48.69c24.25-6.6,48.92-2.82,74,11.37l263.26,148.99 c59.17,33.48,105.52,72.64,139.09,117.45c33.54,44.8,56.03,91.64,67.48,140.47c11.4,48.84,13.16,97.82,5.22,146.94 c-7.95,49.13-24.13,95.27-48.52,138.39c-23.84,42.12-54.92,79.49-93.22,112.08c-38.32,32.63-81.22,56.33-128.67,71.18 c-47.47,14.84-99.06,19.41-154.74,13.72c-55.71-5.7-113.13-25.29-172.3-58.78l-84.24-47.68c-25.08-14.19-49.38-18.03-72.94-11.49 c-23.55,6.53-42.44,22.34-56.62,47.4l-113.23,200.07c-14.77,26.09-35.09,42.7-61,49.88s-51.92,3.4-77.98-11.35 c-28.09-15.9-45.73-36.77-52.93-62.64c-7.21-25.87-3.46-51.79,11.26-77.82L934.2,948.48C955.7,910.5,984.88,886.4,1021.76,876.24z" class="st8"/></g></g></svg>