<svg width="671" height="638" viewBox="0 0 671 638" fill="none" xmlns="http://www.w3.org/2000/svg">
<path opacity="0.77" d="M593.589 0H466.466C462.284 1.90695 458.202 4.02638 454.236 6.35C380.768 49.493 353.741 152.943 274.219 183.52C232.052 199.734 184.419 191.11 140.283 200.766C46.944 221.187 -12.457 327.351 3.62399 421.535C19.705 515.719 98.233 591.58 188.772 622.1C273.831 642.641 430.026 636.475 530.84 606.885C545.746 602.626 560.315 597.266 574.426 590.847C614.081 572.361 646.083 543.471 671 508.412V53.294C649.721 29.7183 623.206 11.4644 593.589 0V0Z" fill="#EF5123" stroke="#707070"/>
<path d="M170.4 194.794C170.4 176.867 175.942 162.36 187.027 151.272C198.112 140.184 212.621 134.64 230.554 134.641H333.875C361.704 134.641 386.119 139.241 407.12 148.441C428.121 157.641 445.578 169.79 459.492 184.887C473.263 199.751 483.964 217.187 490.982 236.196C505.136 274.197 505.136 316.025 490.982 354.026C484.078 373.089 473.364 390.546 459.492 405.332C445.564 420.191 428.107 432.221 407.121 441.421C386.135 450.621 361.72 455.221 333.876 455.221H294.244C282.449 455.221 273.016 458.76 265.944 465.837C258.872 472.914 255.333 482.348 255.328 494.137V588.26C255.328 600.534 251.435 610.56 243.65 618.337C235.865 626.114 225.838 630.009 213.569 630.021C200.353 630.021 189.856 626.128 182.079 618.343C174.302 610.558 170.409 600.532 170.4 588.267V194.794Z" fill="white" stroke="black" stroke-width="8"/>
<path d="M406.82 536.667C406.82 524.404 402.926 514.379 395.138 506.591C387.35 498.803 376.854 494.911 363.65 494.914C351.376 494.914 341.353 498.806 333.58 506.591C325.789 514.377 321.895 524.402 321.898 536.667V608.99C321.898 614.656 324.149 620.089 328.155 624.095C332.161 628.101 337.594 630.352 343.26 630.352H385.46C388.265 630.352 391.043 629.8 393.635 628.726C396.227 627.652 398.581 626.079 400.565 624.095C402.549 622.112 404.122 619.757 405.196 617.165C406.269 614.573 406.822 611.795 406.822 608.99L406.82 536.667Z" fill="#4776BA" stroke="black" stroke-width="8" stroke-miterlimit="10"/>
<path d="M317.264 633.358C316.767 633.357 316.276 633.244 315.829 633.026C315.382 632.809 314.99 632.494 314.681 632.104C314.373 631.714 314.157 631.259 314.049 630.774C313.942 630.288 313.945 629.785 314.059 629.301C315.415 623.491 319.729 613.476 333.367 613.335C347.101 613.192 351.227 623.471 352.467 629.355C352.571 629.836 352.567 630.334 352.454 630.813C352.341 631.292 352.122 631.739 351.814 632.123C351.506 632.506 351.115 632.816 350.672 633.029C350.228 633.242 349.743 633.354 349.251 633.355L317.264 633.358Z" fill="#FBD006" stroke="black" stroke-width="8"/>
<path d="M383.73 633.358C383.233 633.356 382.744 633.242 382.297 633.025C381.851 632.807 381.459 632.492 381.152 632.102C380.844 631.713 380.629 631.258 380.521 630.774C380.413 630.289 380.416 629.786 380.53 629.303C381.885 623.493 386.199 613.478 399.837 613.337C413.571 613.194 417.697 623.473 418.937 629.357C419.041 629.838 419.037 630.336 418.924 630.815C418.811 631.294 418.592 631.741 418.284 632.125C417.976 632.508 417.585 632.818 417.142 633.031C416.698 633.244 416.213 633.356 415.721 633.357L383.73 633.358Z" fill="#FBD006" stroke="black" stroke-width="8"/>
<path d="M347.682 551.341C356.892 551.341 364.359 543.874 364.359 534.664C364.359 525.454 356.892 517.987 347.682 517.987C338.471 517.987 331.005 525.454 331.005 534.664C331.005 543.874 338.471 551.341 347.682 551.341Z" fill="white" stroke="black" stroke-width="8" stroke-miterlimit="10"/>
<path d="M347.682 540.485C350.897 540.485 353.503 537.879 353.503 534.664C353.503 531.449 350.897 528.843 347.682 528.843C344.467 528.843 341.861 531.449 341.861 534.664C341.861 537.879 344.467 540.485 347.682 540.485Z" fill="black" stroke="#707070"/>
<path d="M381.036 550.433C390.246 550.433 397.713 542.966 397.713 533.756C397.713 524.546 390.246 517.079 381.036 517.079C371.825 517.079 364.359 524.546 364.359 533.756C364.359 542.966 371.825 550.433 381.036 550.433Z" fill="white" stroke="black" stroke-width="8" stroke-miterlimit="10"/>
<path d="M381.036 539.577C384.251 539.577 386.857 536.971 386.857 533.756C386.857 530.541 384.251 527.935 381.036 527.935C377.821 527.935 375.215 530.541 375.215 533.756C375.215 536.971 377.821 539.577 381.036 539.577Z" fill="black" stroke="#707070"/>
<path d="M219.875 226.5C221.063 225.338 222.477 224.43 224.028 223.834C225.58 223.237 227.237 222.964 228.898 223.031H248.78C249.151 223.031 249.507 222.884 249.77 222.621C250.032 222.358 250.18 222.002 250.18 221.631V203.131C250.18 199.278 251.338 196.233 253.654 193.994C254.896 192.849 256.353 191.963 257.941 191.387C259.529 190.811 261.216 190.556 262.903 190.638C264.554 190.57 266.203 190.832 267.752 191.408C269.301 191.984 270.72 192.863 271.926 193.994C274.237 196.23 275.394 199.276 275.395 203.131V221.631C275.395 222.002 275.542 222.358 275.805 222.621C276.068 222.884 276.424 223.031 276.795 223.031H296.682C300.534 223.031 303.579 224.187 305.818 226.5C306.962 227.743 307.848 229.202 308.425 230.791C309.001 232.38 309.255 234.067 309.174 235.755C309.242 237.406 308.98 239.054 308.404 240.603C307.828 242.152 306.949 243.571 305.818 244.776C303.582 247.089 300.537 248.245 296.682 248.244H276.788C276.417 248.244 276.061 248.392 275.798 248.654C275.535 248.917 275.388 249.273 275.388 249.644V270.915C275.455 272.576 275.181 274.232 274.585 275.783C273.988 277.334 273.081 278.747 271.919 279.935C270.693 281.112 269.24 282.027 267.649 282.624C266.058 283.221 264.362 283.487 262.665 283.407C261.003 283.49 259.341 283.224 257.788 282.626C256.235 282.028 254.824 281.11 253.648 279.933C252.471 278.756 251.554 277.345 250.956 275.792C250.358 274.239 250.092 272.577 250.176 270.915V249.64C250.176 249.269 250.028 248.913 249.766 248.65C249.503 248.388 249.147 248.24 248.776 248.24H228.897C227.234 248.325 225.572 248.06 224.018 247.463C222.465 246.865 221.053 245.948 219.876 244.771C218.699 243.594 217.781 242.183 217.183 240.629C216.586 239.076 216.32 237.414 216.405 235.751V235.519C216.339 233.859 216.613 232.203 217.21 230.652C217.807 229.101 218.713 227.688 219.875 226.5V226.5Z" fill="#FBD006" stroke="black" stroke-width="8"/>
<path d="M501.599 291.35H343.542C340.513 291.348 337.519 292.001 334.766 293.263C332.012 294.526 329.564 296.368 327.589 298.665C325.613 300.961 324.158 303.657 323.321 306.568C322.485 309.48 322.287 312.537 322.742 315.532C327.096 344.006 345.781 387.44 419.276 387.174C483.906 386.941 472.92 386.158 472.92 386.158C472.92 386.158 501.552 354.226 501.598 295.283" fill="#4776BA"/>
<path d="M501.599 291.35H343.542C340.513 291.348 337.519 292.001 334.766 293.263C332.012 294.526 329.564 296.368 327.589 298.665C325.613 300.961 324.158 303.657 323.321 306.568C322.485 309.48 322.287 312.537 322.742 315.532C327.096 344.006 345.781 387.44 419.276 387.174C483.906 386.941 472.92 386.158 472.92 386.158C472.92 386.158 501.552 354.226 501.598 295.283" stroke="black" stroke-width="8" stroke-miterlimit="10"/>
<path d="M350.371 293.782L363.222 305.406C363.366 305.536 363.536 305.634 363.721 305.695C363.905 305.755 364.1 305.777 364.293 305.758C364.487 305.739 364.674 305.681 364.843 305.586C365.013 305.49 365.16 305.361 365.277 305.206L373.977 293.582C374.131 293.374 374.224 293.128 374.246 292.87C374.269 292.612 374.219 292.354 374.104 292.122C373.988 291.891 373.81 291.696 373.59 291.56C373.371 291.423 373.117 291.35 372.859 291.349H351.306C351.025 291.351 350.75 291.438 350.519 291.598C350.288 291.758 350.11 291.984 350.009 292.247C349.908 292.509 349.889 292.796 349.953 293.07C350.018 293.344 350.163 293.592 350.371 293.782V293.782Z" fill="#FBD006" stroke="black" stroke-width="8"/>
<path d="M407.592 381.495C410.483 372.725 423.9 354.53 485.363 353.095C485.964 353.079 486.559 353.216 487.092 353.494C487.625 353.772 488.079 354.18 488.41 354.682C488.742 355.183 488.94 355.761 488.986 356.36C489.033 356.959 488.926 357.56 488.676 358.107C485.395 365.252 479.314 378.096 475.139 384.55C474.818 385.046 474.378 385.453 473.859 385.735C473.341 386.017 472.759 386.164 472.169 386.163H410.95C410.388 386.163 409.834 386.03 409.334 385.774C408.834 385.517 408.402 385.146 408.074 384.69C407.746 384.234 407.531 383.706 407.447 383.151C407.364 382.595 407.413 382.028 407.592 381.495V381.495Z" fill="#EF5324" stroke="black" stroke-width="8" stroke-miterlimit="10"/>
<path d="M444.836 216.603C465.837 216.603 482.862 199.578 482.862 178.577C482.862 157.576 465.837 140.551 444.836 140.551C423.835 140.551 406.81 157.576 406.81 178.577C406.81 199.578 423.835 216.603 444.836 216.603Z" fill="white" stroke="black" stroke-width="8" stroke-miterlimit="10"/>
<path d="M444.837 191.85C452.167 191.85 458.11 185.907 458.11 178.577C458.11 171.247 452.167 165.304 444.837 165.304C437.506 165.304 431.564 171.247 431.564 178.577C431.564 185.907 437.506 191.85 444.837 191.85Z" fill="black" stroke="#707070"/>
<path d="M237.714 516.344V564.625C237.713 566.367 237.191 568.069 236.215 569.512C235.238 570.955 233.852 572.073 232.235 572.721C230.618 573.369 228.844 573.518 227.141 573.148C225.438 572.779 223.885 571.909 222.682 570.649L199.632 546.508C198.082 544.885 197.218 542.728 197.218 540.484C197.218 538.24 198.082 536.083 199.632 534.46L222.682 510.32C223.885 509.06 225.438 508.189 227.141 507.819C228.844 507.45 230.618 507.599 232.236 508.247C233.853 508.895 235.239 510.013 236.216 511.456C237.192 512.899 237.714 514.602 237.714 516.344V516.344Z" fill="#EF5324" stroke="black" stroke-width="8" stroke-miterlimit="10"/>
</svg>
