<svg width="55" height="70" viewBox="0 0 55 70" fill="none" xmlns="http://www.w3.org/2000/svg">
<path d="M1.07599 67.87C1.28594 67.8724 1.4905 67.9368 1.66391 68.0552C1.83732 68.1736 1.97181 68.3407 2.05048 68.5354C2.12914 68.73 2.14847 68.9436 2.10599 69.1492C2.06351 69.3549 1.96114 69.5433 1.81177 69.6909C1.6624 69.8384 1.4727 69.9385 1.26657 69.9785C1.06044 70.0184 0.847086 69.9966 0.653382 69.9155C0.459677 69.8345 0.294281 69.698 0.178009 69.5231C0.0617377 69.3483 -0.000183574 69.143 4.08805e-07 68.933C0.00185134 68.6494 0.116202 68.3781 0.317963 68.1788C0.519724 67.9795 0.792378 67.8684 1.07599 67.87Z" fill="#FAD007"/>
<path d="M11.6319 67.87C11.8419 67.8724 12.0464 67.9368 12.2198 68.0552C12.3933 68.1736 12.5278 68.3407 12.6064 68.5354C12.6851 68.73 12.7044 68.9436 12.6619 69.1492C12.6194 69.3549 12.5171 69.5433 12.3677 69.6909C12.2183 69.8384 12.0286 69.9385 11.8225 69.9785C11.6164 70.0184 11.403 69.9966 11.2093 69.9155C11.0156 69.8345 10.8502 69.698 10.7339 69.5231C10.6177 69.3483 10.5557 69.143 10.5559 68.933C10.5578 68.6494 10.6721 68.3781 10.8739 68.1788C11.0757 67.9795 11.3483 67.8684 11.6319 67.87Z" fill="#FAD007"/>
<path d="M11.6341 56.424C12.2284 56.424 12.7101 55.9476 12.7101 55.36C12.7101 54.7724 12.2284 54.296 11.6341 54.296C11.0398 54.296 10.5581 54.7724 10.5581 55.36C10.5581 55.9476 11.0398 56.424 11.6341 56.424Z" fill="#FAD007"/>
<path d="M22.1929 67.87C22.4029 67.8724 22.6074 67.9368 22.7809 68.0552C22.9543 68.1736 23.0888 68.3407 23.1675 68.5354C23.2461 68.73 23.2654 68.9436 23.2229 69.1492C23.1805 69.3549 23.0781 69.5433 22.9287 69.6909C22.7793 69.8384 22.5897 69.9385 22.3835 69.9785C22.1774 70.0184 21.9641 69.9966 21.7704 69.9155C21.5767 69.8345 21.4113 69.698 21.295 69.5231C21.1787 69.3483 21.1168 69.143 21.1169 68.933C21.1188 68.6494 21.2332 68.3781 21.4349 68.1788C21.6367 67.9795 21.9093 67.8684 22.1929 67.87Z" fill="#FAD007"/>
<path d="M22.1929 56.424C22.7872 56.424 23.2689 55.9476 23.2689 55.36C23.2689 54.7724 22.7872 54.296 22.1929 54.296C21.5987 54.296 21.1169 54.7724 21.1169 55.36C21.1169 55.9476 21.5987 56.424 22.1929 56.424Z" fill="#FAD007"/>
<path d="M22.1929 42.85C22.7872 42.85 23.2689 42.3736 23.2689 41.786C23.2689 41.1984 22.7872 40.722 22.1929 40.722C21.5987 40.722 21.1169 41.1984 21.1169 41.786C21.1169 42.3736 21.5987 42.85 22.1929 42.85Z" fill="#FAD007"/>
<path d="M32.7521 67.87C32.962 67.8726 33.1664 67.9372 33.3397 68.0557C33.513 68.1742 33.6473 68.3413 33.7258 68.536C33.8043 68.7307 33.8235 68.9442 33.7809 69.1498C33.7384 69.3554 33.6359 69.5438 33.4865 69.6912C33.3371 69.8387 33.1474 69.9386 32.9413 69.9785C32.7352 70.0184 32.5219 69.9965 32.3282 69.9154C32.1346 69.8344 31.9693 69.6978 31.853 69.523C31.7368 69.3482 31.6749 69.1429 31.675 68.933C31.676 68.7925 31.7046 68.6535 31.7592 68.5241C31.8138 68.3946 31.8934 68.2772 31.9934 68.1785C32.0934 68.0798 32.2119 68.0017 32.342 67.9488C32.4722 67.8959 32.6116 67.8691 32.7521 67.87V67.87Z" fill="#FAD007"/>
<path d="M32.752 56.424C33.3463 56.424 33.828 55.9476 33.828 55.36C33.828 54.7724 33.3463 54.296 32.752 54.296C32.1578 54.296 31.676 54.7724 31.676 55.36C31.676 55.9476 32.1578 56.424 32.752 56.424Z" fill="#FAD007"/>
<path d="M32.752 42.85C33.3463 42.85 33.828 42.3736 33.828 41.786C33.828 41.1984 33.3463 40.722 32.752 40.722C32.1578 40.722 31.676 41.1984 31.676 41.786C31.676 42.3736 32.1578 42.85 32.752 42.85Z" fill="#FAD007"/>
<path d="M32.752 29.276C33.3463 29.276 33.828 28.7996 33.828 28.212C33.828 27.6244 33.3463 27.148 32.752 27.148C32.1578 27.148 31.676 27.6244 31.676 28.212C31.676 28.7996 32.1578 29.276 32.752 29.276Z" fill="#FAD007"/>
<path d="M43.315 67.87C43.5249 67.8726 43.7294 67.9372 43.9027 68.0557C44.076 68.1742 44.2103 68.3413 44.2888 68.536C44.3673 68.7307 44.3865 68.9442 44.3439 69.1498C44.3013 69.3554 44.1988 69.5438 44.0494 69.6912C43.9 69.8387 43.7103 69.9386 43.5042 69.9785C43.2981 70.0184 43.0849 69.9965 42.8912 69.9154C42.6976 69.8344 42.5322 69.6978 42.416 69.523C42.2998 69.3482 42.2379 69.1429 42.238 68.933C42.239 68.7925 42.2675 68.6535 42.3221 68.5241C42.3768 68.3946 42.4564 68.2772 42.5564 68.1785C42.6564 68.0798 42.7749 68.0017 42.905 67.9488C43.0352 67.8959 43.1745 67.8691 43.315 67.87Z" fill="#FAD007"/>
<path d="M43.3099 56.424C43.9041 56.424 44.3859 55.9476 44.3859 55.36C44.3859 54.7724 43.9041 54.296 43.3099 54.296C42.7156 54.296 42.2339 54.7724 42.2339 55.36C42.2339 55.9476 42.7156 56.424 43.3099 56.424Z" fill="#FAD007"/>
<path d="M43.3099 42.85C43.9041 42.85 44.3859 42.3736 44.3859 41.786C44.3859 41.1984 43.9041 40.722 43.3099 40.722C42.7156 40.722 42.2339 41.1984 42.2339 41.786C42.2339 42.3736 42.7156 42.85 43.3099 42.85Z" fill="#FAD007"/>
<path d="M43.3099 29.276C43.9041 29.276 44.3859 28.7996 44.3859 28.212C44.3859 27.6244 43.9041 27.148 43.3099 27.148C42.7156 27.148 42.2339 27.6244 42.2339 28.212C42.2339 28.7996 42.7156 29.276 43.3099 29.276Z" fill="#FAD007"/>
<path d="M43.3099 15.702C43.9041 15.702 44.3859 15.2256 44.3859 14.638C44.3859 14.0504 43.9041 13.574 43.3099 13.574C42.7156 13.574 42.2339 14.0504 42.2339 14.638C42.2339 15.2256 42.7156 15.702 43.3099 15.702Z" fill="#FAD007"/>
<path d="M53.869 67.87C54.0789 67.8724 54.2835 67.9368 54.4569 68.0552C54.6303 68.1736 54.7648 68.3407 54.8435 68.5354C54.9221 68.73 54.9414 68.9436 54.899 69.1492C54.8565 69.3549 54.7541 69.5433 54.6047 69.6909C54.4554 69.8384 54.2657 69.9385 54.0595 69.9785C53.8534 70.0184 53.6401 69.9966 53.4464 69.9155C53.2527 69.8345 53.0873 69.698 52.971 69.5231C52.8547 69.3483 52.7928 69.143 52.793 68.933C52.7951 68.6495 52.9095 68.3784 53.1112 68.1791C53.3129 67.9798 53.5854 67.8687 53.869 67.87V67.87Z" fill="#FAD007"/>
<path d="M53.869 56.424C54.4632 56.424 54.945 55.9476 54.945 55.36C54.945 54.7724 54.4632 54.296 53.869 54.296C53.2747 54.296 52.793 54.7724 52.793 55.36C52.793 55.9476 53.2747 56.424 53.869 56.424Z" fill="#FAD007"/>
<path d="M53.869 42.85C54.4632 42.85 54.945 42.3736 54.945 41.786C54.945 41.1984 54.4632 40.722 53.869 40.722C53.2747 40.722 52.793 41.1984 52.793 41.786C52.793 42.3736 53.2747 42.85 53.869 42.85Z" fill="#FAD007"/>
<path d="M53.869 29.276C54.4632 29.276 54.945 28.7996 54.945 28.212C54.945 27.6244 54.4632 27.148 53.869 27.148C53.2747 27.148 52.793 27.6244 52.793 28.212C52.793 28.7996 53.2747 29.276 53.869 29.276Z" fill="#FAD007"/>
<path d="M53.869 15.702C54.4632 15.702 54.945 15.2256 54.945 14.638C54.945 14.0504 54.4632 13.574 53.869 13.574C53.2747 13.574 52.793 14.0504 52.793 14.638C52.793 15.2256 53.2747 15.702 53.869 15.702Z" fill="#FAD007"/>
<path d="M53.869 2.70293e-05C54.0788 0.00239423 54.2833 0.0667861 54.4567 0.185086C54.6301 0.303385 54.7646 0.470324 54.8433 0.664883C54.922 0.859442 54.9414 1.0729 54.8991 1.27847C54.8568 1.48404 54.7546 1.67251 54.6054 1.82016C54.4563 1.9678 54.2668 2.06804 54.0608 2.10824C53.8548 2.14845 53.6415 2.12683 53.4478 2.04611C53.254 1.96539 53.0885 1.8292 52.972 1.65463C52.8554 1.48006 52.7932 1.27491 52.793 1.06503C52.7946 0.781155 52.9088 0.509479 53.1105 0.30978C53.3123 0.110082 53.5851 -0.0013027 53.869 2.70293e-05V2.70293e-05Z" fill="#FAD007"/>
</svg>
