<svg width="56" height="51" viewBox="0 0 56 51" fill="none" xmlns="http://www.w3.org/2000/svg">
<path d="M0 7.8947L2.24288 7.51616L2.63698 9.62343L0.394108 10.002L0 7.8947Z" fill="#EF5123"/>
<path d="M7.50903 6.64263L9.75191 6.26409L10.146 8.37137L7.90314 8.74991L7.50903 6.64263Z" fill="#EF5123"/>
<path d="M15.0171 5.38963L17.26 5.01108L17.6541 7.11836L15.4112 7.4969L15.0171 5.38963Z" fill="#EF5123"/>
<path d="M22.5259 4.13661L24.7688 3.75807L25.1629 5.86535L22.92 6.24389L22.5259 4.13661Z" fill="#EF5123"/>
<path d="M30.0349 2.88456L32.2778 2.50602L32.6719 4.61329L30.429 4.99184L30.0349 2.88456Z" fill="#EF5123"/>
<path d="M37.5439 1.63155L39.7868 1.25301L40.1809 3.36029L37.9381 3.73883L37.5439 1.63155Z" fill="#EF5123"/>
<path d="M45.052 0.378548L47.2949 3.59006e-06L47.689 2.10728L45.4461 2.48583L45.052 0.378548Z" fill="#EF5123"/>
<path d="M1.51807 15.9162L3.76094 15.5377L4.15505 17.645L1.91217 18.0235L1.51807 15.9162Z" fill="#EF5123"/>
<path d="M9.0271 14.6632L11.27 14.2847L11.6641 16.392L9.42121 16.7705L9.0271 14.6632Z" fill="#EF5123"/>
<path d="M16.5359 13.4102L18.7788 13.0317L19.1729 15.139L16.93 15.5175L16.5359 13.4102Z" fill="#EF5123"/>
<path d="M24.0449 12.1581L26.2878 11.7796L26.6819 13.8869L24.439 14.2654L24.0449 12.1581Z" fill="#EF5123"/>
<path d="M31.553 10.9051L33.7959 10.5266L34.19 12.6339L31.9471 13.0124L31.553 10.9051Z" fill="#EF5123"/>
<path d="M39.062 9.65213L41.3049 9.27359L41.699 11.3809L39.4561 11.7594L39.062 9.65213Z" fill="#EF5123"/>
<path d="M46.571 8.40009L48.8139 8.02154L49.208 10.1288L46.9652 10.5074L46.571 8.40009Z" fill="#EF5123"/>
<path d="M3.03711 23.9368L5.27999 23.5583L5.67409 25.6655L3.43122 26.0441L3.03711 23.9368Z" fill="#EF5123"/>
<path d="M10.5459 22.6838L12.7888 22.3053L13.1829 24.4125L10.94 24.7911L10.5459 22.6838Z" fill="#EF5123"/>
<path d="M18.054 21.4317L20.2968 21.0532L20.6909 23.1605L18.4481 23.539L18.054 21.4317Z" fill="#EF5123"/>
<path d="M25.563 20.1787L27.8059 19.8002L28.2 21.9075L25.9571 22.286L25.563 20.1787Z" fill="#EF5123"/>
<path d="M33.072 18.9257L35.3149 18.5472L35.709 20.6545L33.4661 21.033L33.072 18.9257Z" fill="#EF5123"/>
<path d="M40.5811 17.6737L42.8239 17.2951L43.218 19.4024L40.9752 19.7809L40.5811 17.6737Z" fill="#EF5123"/>
<path d="M48.0891 16.4207L50.332 16.0421L50.7261 18.1494L48.4832 18.5279L48.0891 16.4207Z" fill="#EF5123"/>
<path d="M4.55493 31.9574L6.79781 31.5788L7.19192 33.6861L4.94904 34.0647L4.55493 31.9574Z" fill="#EF5123"/>
<path d="M12.064 30.7053L14.3068 30.3268L14.7009 32.4341L12.4581 32.8126L12.064 30.7053Z" fill="#EF5123"/>
<path d="M19.573 29.4523L21.8159 29.0738L22.21 31.1811L19.9671 31.5596L19.573 29.4523Z" fill="#EF5123"/>
<path d="M27.082 28.1993L29.3249 27.8208L29.719 29.928L27.4761 30.3066L27.082 28.1993Z" fill="#EF5123"/>
<path d="M34.5901 26.9473L36.833 26.5687L37.2271 28.676L34.9842 29.0545L34.5901 26.9473Z" fill="#EF5123"/>
<path d="M42.0991 25.6943L44.342 25.3157L44.7361 27.423L42.4932 27.8015L42.0991 25.6943Z" fill="#EF5123"/>
<path d="M49.6079 24.4413L51.8508 24.0627L52.2449 26.17L50.002 26.5485L49.6079 24.4413Z" fill="#EF5123"/>
<path d="M6.07397 39.978L8.31685 39.5994L8.71096 41.7067L6.46808 42.0852L6.07397 39.978Z" fill="#EF5123"/>
<path d="M13.583 38.7259L15.8259 38.3474L16.22 40.4546L13.9771 40.8332L13.583 38.7259Z" fill="#EF5123"/>
<path d="M21.0911 37.4729L23.3339 37.0944L23.728 39.2016L21.4852 39.5802L21.0911 37.4729Z" fill="#EF5123"/>
<path d="M28.6001 36.2209L30.843 35.8423L31.2371 37.9496L28.9942 38.3281L28.6001 36.2209Z" fill="#EF5123"/>
<path d="M36.1089 34.9678L38.3518 34.5893L38.7459 36.6966L36.503 37.0751L36.1089 34.9678Z" fill="#EF5123"/>
<path d="M43.6169 33.7148L45.8598 33.3363L46.2539 35.4436L44.0111 35.8221L43.6169 33.7148Z" fill="#EF5123"/>
<path d="M51.126 32.4628L53.3689 32.0842L53.763 34.1915L51.5201 34.5701L51.126 32.4628Z" fill="#EF5123"/>
<path d="M7.59204 47.9995L9.83492 47.621L10.229 49.7282L7.98615 50.1068L7.59204 47.9995Z" fill="#EF5123"/>
<path d="M15.1011 46.7465L17.344 46.368L17.7381 48.4752L15.4952 48.8538L15.1011 46.7465Z" fill="#EF5123"/>
<path d="M22.6101 45.4935L24.853 45.115L25.2471 47.2222L23.0042 47.6008L22.6101 45.4935Z" fill="#EF5123"/>
<path d="M30.1179 44.2414L32.3608 43.8629L32.7549 45.9702L30.512 46.3487L30.1179 44.2414Z" fill="#EF5123"/>
<path d="M37.627 42.9884L39.8698 42.6099L40.2639 44.7172L38.0211 45.0957L37.627 42.9884Z" fill="#EF5123"/>
<path d="M45.136 41.7364L47.3789 41.3578L47.773 43.4651L45.5301 43.8436L45.136 41.7364Z" fill="#EF5123"/>
<path d="M52.645 40.4834L54.8879 40.1048L55.282 42.2121L53.0391 42.5906L52.645 40.4834Z" fill="#EF5123"/>
</svg>
