<svg width="94" height="93" viewBox="0 0 94 93" fill="none" xmlns="http://www.w3.org/2000/svg">
<path d="M10.3351 17.235C10.0224 17.6183 9.7175 18.005 9.42017 18.395L74.9882 83.186C75.3822 82.886 75.7741 82.586 76.1611 82.286L10.3351 17.235Z" fill="#4776BA"/>
<path d="M1.92114 33.063C1.76014 33.6 1.61219 34.14 1.47119 34.681L58.5082 91.043C59.0562 90.904 59.6021 90.757 60.1461 90.598L1.92114 33.063Z" fill="#4776BA"/>
<path d="M6.95996 21.945C6.69329 22.373 6.43357 22.8043 6.18091 23.239L70.089 86.39C70.5283 86.1407 70.9646 85.8844 71.3979 85.621L6.95996 21.945Z" fill="#4776BA"/>
<path d="M4.12708 27.198C3.90908 27.6753 3.69907 28.1557 3.49707 28.639L64.619 89.039C65.108 88.839 65.594 88.632 66.077 88.416L4.12708 27.198Z" fill="#4776BA"/>
<path d="M0.462036 39.67C0.374036 40.281 0.300107 40.896 0.235107 41.51L51.599 92.265C52.221 92.202 52.8421 92.129 53.4601 92.041L0.462036 39.67Z" fill="#4776BA"/>
<path d="M13.6949 13.539C13.5209 13.711 13.351 13.886 13.179 14.061L79.371 79.47C79.548 79.3 79.726 79.132 79.901 78.961C80.076 78.79 80.245 78.613 80.417 78.439L14.225 13.03C14.052 13.199 13.8749 13.366 13.6949 13.539Z" fill="#4776BA"/>
<path d="M0 47.262C0.016 47.9826 0.049431 48.703 0.100098 49.423L43.5861 92.395C44.3141 92.4436 45.0434 92.477 45.774 92.495L0 47.262Z" fill="#4776BA"/>
<path d="M36.5011 91.379L1.13208 56.429C1.34341 57.3623 1.58444 58.2887 1.8551 59.208L33.6891 90.665C34.6204 90.9324 35.5578 91.1704 36.5011 91.379Z" fill="#4776BA"/>
<path d="M50.0139 0.0999756C49.2859 0.0499756 48.5566 0.0166667 47.8259 0L93.604 45.237C93.588 44.515 93.5546 43.7943 93.5039 43.075L50.0139 0.0999756Z" fill="#4776BA"/>
<path d="M42.0051 0.235008C41.3831 0.297675 40.7621 0.372031 40.1421 0.458031L93.1421 52.831C93.2301 52.219 93.3041 51.605 93.3691 50.991L42.0051 0.235008Z" fill="#4776BA"/>
<path d="M6.46411 69.746C10.5204 76.5063 16.2159 82.1345 23.024 86.11L6.46411 69.746Z" fill="#4776BA"/>
<path d="M59.916 1.83502C58.9827 1.56836 58.0453 1.33 57.104 1.12L92.473 36.071C92.2617 35.1377 92.0207 34.211 91.75 33.291L59.916 1.83502Z" fill="#4776BA"/>
<path d="M87.141 22.754C83.0846 15.9929 77.3887 10.364 70.5801 6.38799L87.141 22.754Z" fill="#4776BA"/>
<path d="M23.5171 6.10898C23.0778 6.35831 22.6413 6.61531 22.208 6.87997L86.645 70.556C86.9117 70.1273 87.1717 69.6957 87.425 69.261L23.5171 6.10898Z" fill="#4776BA"/>
<path d="M18.6129 9.314C18.2189 9.608 17.8279 9.90802 17.4399 10.214L83.265 75.26C83.5777 74.878 83.8829 74.4916 84.1809 74.101L18.6129 9.314Z" fill="#4776BA"/>
<path d="M35.092 1.45503C34.544 1.59403 33.9981 1.73998 33.4531 1.89998L91.6791 59.437C91.8401 58.9 91.9882 58.36 92.1292 57.817L35.092 1.45503Z" fill="#4776BA"/>
<path d="M28.9832 3.46501C28.4945 3.66501 28.0085 3.87235 27.5251 4.08702L89.4751 65.304C89.6931 64.8267 89.9031 64.3464 90.1051 63.863L28.9832 3.46501Z" fill="#4776BA"/>
</svg>
