<svg width="512" height="512" viewBox="0 0 512 512" fill="none" xmlns="http://www.w3.org/2000/svg">
  <path
    d="M204.443 483.181C62.1846 458.322 81.2183 384.702 36.4129 299.756C-8.39254 214.81 -13.6429 180.226 30.7018 107.442C75.0465 34.6567 170.992 -6.37652 260.363 54.5351C349.734 115.447 415.051 96.557 469.071 144.002C523.091 191.447 530.405 257.686 466.307 316.697C402.209 375.708 379.864 513.858 204.443 483.181Z"
    fill="#13172D" />
  <path
    d="M204.443 483.181C62.1846 458.322 81.2183 384.702 36.4129 299.756C-8.39254 214.81 -13.6429 180.226 30.7018 107.442C75.0465 34.6567 170.992 -6.37652 260.363 54.5351C349.734 115.447 415.051 96.557 469.071 144.002C523.091 191.447 530.405 257.686 466.307 316.697C402.209 375.708 379.864 513.858 204.443 483.181Z"
    fill="#F6F7F9" />
  <path
    d="M81.8713 432.118C66.2578 432.118 56.0739 428.045 51.3194 419.9C46.565 411.754 48.0912 400.891 55.8979 387.313L186.254 157.162C188.141 154.641 189.344 151.674 189.744 148.551C190.144 145.427 189.729 142.253 188.539 139.338C185.979 134.929 180.463 132.721 171.991 132.715H83.9061C80.1332 132.879 76.3656 132.288 72.8238 130.978C69.2819 129.667 66.037 127.664 63.2791 125.084C60.6173 122.426 58.5405 119.241 57.1817 115.734C55.823 112.226 55.2125 108.473 55.3892 104.716C55.202 100.845 55.805 96.9765 57.1614 93.3461C58.5179 89.7156 60.5994 86.3995 63.2791 83.5996C65.9998 80.9506 69.2324 78.8845 72.7791 77.5279C76.3258 76.1712 80.1121 75.5526 83.9061 75.7097H259.557C272.458 75.7097 280.946 79.1907 285.022 86.1528C289.098 93.1148 287.911 102.189 281.461 113.374L110.897 415.312C108.14 420.432 103.991 424.669 98.9277 427.53C93.9227 430.514 88.2068 432.095 82.3799 432.109L81.8713 432.118Z"
    fill="#FAD007" />
  <path
    d="M176.213 432.109C162.628 432.109 153.718 428.544 149.481 421.416C145.245 414.288 146.525 404.782 153.321 392.899C156.183 387.341 160.607 382.74 166.048 379.663C171.154 376.695 176.949 375.116 182.855 375.084H274.511C278.252 374.832 282.005 375.383 285.516 376.701C289.028 378.019 292.216 380.073 294.868 382.725C297.52 385.377 299.574 388.566 300.892 392.077C302.21 395.588 302.761 399.341 302.509 403.083C302.696 406.936 302.114 410.788 300.795 414.414C299.477 418.04 297.449 421.366 294.83 424.2C292.174 426.861 288.991 428.937 285.485 430.296C281.979 431.654 278.228 432.265 274.472 432.089L176.213 432.109Z"
    fill="#4776BA" />
  <path
    d="M263.657 219.829C268.753 218.498 274.067 218.22 279.274 219.012C284.48 219.804 289.471 221.65 293.94 224.437L353.086 257.906C361.979 263.376 372.317 266.032 382.745 265.528C391.714 264.97 400.376 262.053 407.854 257.071C415.179 252.067 421.231 245.417 425.525 237.654C429.973 229.955 432.492 221.294 432.868 212.41C433.166 203.447 431.209 194.552 427.176 186.542C422.345 177.369 414.813 169.9 405.599 165.147L334.686 125.016C331.615 123.45 328.886 121.292 326.653 118.666C324.421 116.04 322.731 112.999 321.68 109.716C320.763 106.352 320.56 102.833 321.082 99.3849C321.604 95.937 322.841 92.6363 324.713 89.694C326.232 86.5395 328.404 83.7439 331.086 81.4926C333.768 79.2412 336.897 77.5856 340.267 76.6353C343.637 75.6851 347.17 75.4619 350.633 75.9807C354.095 76.4995 357.408 77.7483 360.352 79.6444L431.246 119.766C445.785 127.614 458.533 138.4 468.68 151.441C477.108 162.293 483.198 174.772 486.568 188.093C489.938 201.414 490.514 215.288 488.26 228.842C484.053 255.184 470.502 279.13 450.087 296.3C439.963 304.989 428.173 311.521 415.437 315.497C401.947 319.562 387.766 320.82 373.77 319.192C357.373 317.193 341.572 311.803 327.372 303.365L304.681 290.522C301.819 288.629 298.583 287.372 295.194 286.836C291.804 286.3 288.339 286.497 285.032 287.414C281.725 288.331 278.654 289.946 276.024 292.152C273.395 294.357 271.269 297.1 269.791 300.197L239.296 354.073C237.64 357.33 235.324 360.207 232.495 362.52C229.666 364.833 226.387 366.532 222.865 367.508C219.344 368.484 215.658 368.716 212.042 368.189C208.426 367.663 204.959 366.389 201.863 364.449C198.47 362.748 195.457 360.377 193.007 357.478C190.557 354.579 188.721 351.213 187.609 347.584C186.657 344.07 186.435 340.397 186.957 336.794C187.478 333.19 188.733 329.731 190.642 326.631L240.016 239.372C242.408 234.669 245.741 230.508 249.808 227.146C253.874 223.784 258.588 221.294 263.657 219.829Z"
    fill="#EE4723" />
</svg>
